<svg xmlns="http://www.w3.org/2000/svg" viewBox="0 0 257.51 178" width="257.51" height="178" role="img" aria-label="Assokit">
  <title>Assokit</title>
  <g transform="translate(78.75492957746474 0)"><rect width="100" height="100" rx="22" ry="22" fill="#059669"/><circle cx="68.31" cy="68.31" r="14.94" fill="#FFFFFF"/></g>
  <path fill="#0B1A13" d="M11.352 178L1.392 178L20.141 126L31.786 126L50.535 178L40.575 178L36.254 165.696L15.673 165.696L11.352 178ZM26 135.594L18.456 157.566L33.470 157.566L26 135.594Z M69.797 178.879L69.797 178.879Q63.865 178.879 59.946 177.194Q56.028 175.510 53.977 172.507Q51.927 169.504 51.634 165.696L51.634 165.696L61.228 165.256Q61.741 168.332 63.718 170.017Q65.696 171.701 69.870 171.701L69.870 171.701Q73.166 171.701 74.887 170.639Q76.608 169.577 76.608 167.307L76.608 167.307Q76.608 165.989 75.986 165.110Q75.363 164.231 73.569 163.572Q71.775 162.913 68.332 162.254L68.332 162.254Q62.400 161.228 59.031 159.727Q55.662 158.225 54.307 155.955Q52.952 153.685 52.952 150.315L52.952 150.315Q52.952 144.823 57.163 141.417Q61.375 138.011 69.504 138.011L69.504 138.011Q75.144 138.011 78.769 139.806Q82.394 141.600 84.262 144.566Q86.130 147.532 86.423 151.194L86.423 151.194L76.901 151.634Q76.828 149.803 76.023 148.338Q75.217 146.873 73.606 146.031Q71.994 145.189 69.358 145.189L69.358 145.189Q66.062 145.189 64.341 146.507Q62.620 147.825 62.620 150.023L62.620 150.023Q62.620 151.561 63.315 152.586Q64.011 153.611 65.696 154.234Q67.380 154.856 70.310 155.369L70.310 155.369Q76.315 156.248 79.831 157.786Q83.346 159.324 84.848 161.631Q86.349 163.938 86.349 167.161L86.349 167.161Q86.349 172.800 81.845 175.839Q77.341 178.879 69.797 178.879Z M108.101 178.879L108.101 178.879Q102.169 178.879 98.251 177.194Q94.332 175.510 92.282 172.507Q90.231 169.504 89.938 165.696L89.938 165.696L99.532 165.256Q100.045 168.332 102.023 170.017Q104 171.701 108.175 171.701L108.175 171.701Q111.470 171.701 113.192 170.639Q114.913 169.577 114.913 167.307L114.913 167.307Q114.913 165.989 114.290 165.110Q113.668 164.231 111.873 163.572Q110.079 162.913 106.637 162.254L106.637 162.254Q100.704 161.228 97.335 159.727Q93.966 158.225 92.611 155.955Q91.256 153.685 91.256 150.315L91.256 150.315Q91.256 144.823 95.468 141.417Q99.679 138.011 107.808 138.011L107.808 138.011Q113.448 138.011 117.073 139.806Q120.699 141.600 122.566 144.566Q124.434 147.532 124.727 151.194L124.727 151.194L115.206 151.634Q115.132 149.803 114.327 148.338Q113.521 146.873 111.910 146.031Q110.299 145.189 107.662 145.189L107.662 145.189Q104.366 145.189 102.645 146.507Q100.924 147.825 100.924 150.023L100.924 150.023Q100.924 151.561 101.620 152.586Q102.315 153.611 104 154.234Q105.685 154.856 108.614 155.369L108.614 155.369Q114.620 156.248 118.135 157.786Q121.651 159.324 123.152 161.631Q124.654 163.938 124.654 167.161L124.654 167.161Q124.654 172.800 120.149 175.839Q115.645 178.879 108.101 178.879Z M147.504 178.879L147.504 178.879Q141.718 178.879 137.361 176.352Q133.003 173.825 130.623 169.211Q128.242 164.597 128.242 158.445L128.242 158.445Q128.242 152.220 130.623 147.642Q133.003 143.065 137.361 140.538Q141.718 138.011 147.504 138.011L147.504 138.011Q153.290 138.011 157.611 140.538Q161.932 143.065 164.313 147.642Q166.693 152.220 166.693 158.445L166.693 158.445Q166.693 164.597 164.313 169.211Q161.932 173.825 157.611 176.352Q153.290 178.879 147.504 178.879ZM147.504 171.262L147.504 171.262Q152.045 171.262 154.499 167.893Q156.952 164.524 156.952 158.445L156.952 158.445Q156.952 152.439 154.499 149.034Q152.045 145.628 147.504 145.628L147.504 145.628Q142.963 145.628 140.473 149.034Q137.983 152.439 137.983 158.445L137.983 158.445Q137.983 164.524 140.473 167.893Q142.963 171.262 147.504 171.262Z"/>
  <path fill="#059669" d="M184.051 178L174.676 178L174.676 126L184.051 126L184.051 156.541L200.090 138.890L211.662 138.890L196.355 155.149L212.175 178L201.628 178L190.203 160.715L184.051 167.234L184.051 178Z M224.918 178L215.544 178L215.544 138.890L224.918 138.890L224.918 178ZM225.138 133.690L215.397 133.690L215.397 125.341L225.138 125.341L225.138 133.690Z M255.386 178L247.037 178Q241.177 178 238.431 175.290Q235.685 172.580 235.685 166.794L235.685 166.794L235.685 129.735L245.059 129.735L245.059 165.915Q245.059 168.625 246.231 169.687Q247.403 170.749 249.893 170.749L249.893 170.749L255.386 170.749L255.386 178ZM255.386 146.141L229.532 146.141L229.532 138.890L255.386 138.890L255.386 146.141Z"/>
</svg>
